<?xml version="1.0" encoding="UTF-8"?><svg id="a" xmlns="http://www.w3.org/2000/svg" viewBox="0 0 444.33 443.61"><defs><style>.b{stroke-width:2.91px;}.b,.c{fill:#fff;}.b,.d,.e,.f,.g{stroke-miterlimit:10;}.b,.d,.g{stroke:#939598;}.b,.g{stroke-linecap:round;}.d{fill:#939598;stroke-width:.72px;}.e{fill:#ffc4e1;}.e,.f{stroke:#a7a9ac;stroke-width:.37px;}.f{fill:#968c83;}.g{fill:none;stroke-dasharray:0 0 0 27.44;stroke-width:8.24px;}</style></defs><g><path class="c" d="M222.15,14.74C107.98,14.74,15.1,107.65,15.1,221.82s92.88,207.05,207.05,207.05,207.09-92.88,207.09-207.05S336.32,14.74,222.15,14.74Zm-.04,412.73c-113.16,0-204.93-91.76-204.93-204.93S108.95,17.62,222.11,17.62s204.93,91.76,204.93,204.93-91.73,204.93-204.93,204.93Z"/><path class="d" d="M434.71,227.48c5.51-2.34,9.26-7.75,9.26-13.94,0-.32,0-.68-.04-1.01-.22-3.24-1.44-6.12-3.31-8.47-1.87-2.34-4.4-4.07-7.31-4.97,4.5-2.67,7.35-7.57,7.35-12.97,0-.86-.07-1.73-.22-2.63-.54-3.17-2.05-5.98-4.18-8.07-2.13-2.13-4.86-3.6-7.89-4.18,3.75-2.81,6.02-7.28,6.02-12.03,0-1.41-.22-2.88-.65-4.32-.9-3.1-2.77-5.69-5.12-7.57-2.38-1.87-5.3-3.03-8.36-3.21,2.92-2.85,4.58-6.81,4.58-10.88,0-2.05-.43-4.11-1.3-6.12-2.56-5.62-8-8.97-13.8-8.97-.36,0-.68,0-1.04,.04,2.13-2.7,3.24-6.02,3.24-9.37,0-2.74-.76-5.48-2.27-7.96-2.88-4.61-7.82-7.13-12.86-7.13-1.04,0-2.09,.11-3.13,.32,1.37-2.34,2.05-4.97,2.05-7.64,0-3.39-1.15-6.85-3.53-9.66-2.99-3.6-7.28-5.44-11.6-5.44-1.77,0-3.49,.32-5.19,.94,.72-1.8,1.08-3.71,1.08-5.62,0-4.18-1.69-8.29-5.04-11.28-2.88-2.59-6.48-3.85-10.09-3.85-2.49,0-4.94,.61-7.17,1.8,.29-1.19,.43-2.38,.43-3.57,0-4.9-2.38-9.69-6.74-12.61-2.56-1.69-5.48-2.52-8.36-2.52-3.17,0-6.34,1.01-8.97,2.95,.04-.47,.07-.94,.07-1.41,0-5.69-3.17-11.1-8.57-13.69-2.13-1.04-4.36-1.51-6.59-1.51-3.89,0-7.67,1.51-10.48,4.25-.11-3.06-1.15-6.02-2.95-8.43-1.8-2.45-4.36-4.36-7.46-5.37-1.55-.5-3.13-.76-4.68-.76-4.65,0-9.04,2.16-11.89,5.76-.5-3.03-1.95-5.8-4.04-8-2.09-2.16-4.86-3.75-8.07-4.36-.97-.18-1.91-.29-2.85-.29-5.33,0-10.23,2.88-12.93,7.39-.86-2.95-2.67-5.55-5.01-7.42-2.34-1.91-5.3-3.1-8.54-3.31-.32-.04-.61-.04-.94-.04-6.09,0-11.46,3.67-13.83,9.04-2.38-5.33-7.75-9.01-13.83-9.01-.32,0-.61,0-.94,.04-3.24,.22-6.2,1.44-8.54,3.35-2.34,1.91-4.11,4.5-4.97,7.46-2.7-4.47-7.57-7.31-12.9-7.31-.94,0-1.95,.11-2.92,.29-3.17,.61-5.94,2.2-8.03,4.36-2.09,2.2-3.49,5.01-4,8.03-2.88-3.6-7.28-5.73-11.89-5.73-1.55,0-3.13,.25-4.72,.76v.04c-3.1,1.01-5.66,2.92-7.42,5.37-1.8,2.45-2.85,5.4-2.92,8.5-2.85-2.74-6.63-4.25-10.56-4.25-2.23,0-4.43,.47-6.56,1.51-5.4,2.63-8.5,8-8.5,13.58,0,.54,0,1.04,.07,1.59-2.63-1.91-5.76-2.92-8.97-2.92-2.88,0-5.8,.83-8.39,2.56-4.36,2.92-6.7,7.75-6.7,12.61,0,1.23,.14,2.45,.43,3.64-2.2-1.19-4.68-1.8-7.13-1.8-3.6,0-7.24,1.3-10.12,3.89-3.31,2.95-5.01,7.1-5.01,11.2,0,1.95,.36,3.89,1.12,5.73-1.66-.61-3.42-.9-5.15-.9-4.32,0-8.61,1.84-11.6,5.44-2.34,2.81-3.49,6.27-3.49,9.66,0,2.67,.72,5.33,2.09,7.67-1.01-.22-2.05-.32-3.1-.32-5.08,0-10.02,2.56-12.86,7.21-1.51,2.45-2.23,5.19-2.23,7.89,0,3.39,1.12,6.7,3.28,9.4-.32-.04-.65-.04-.97-.04-5.8,0-11.35,3.42-13.83,9.08-.86,1.98-1.26,4.04-1.26,6.05,0,4.07,1.66,8.03,4.61,10.88-3.06,.22-5.98,1.37-8.36,3.24-2.38,1.87-4.18,4.5-5.12,7.6h.04c-.43,1.44-.61,2.88-.61,4.29,0,4.72,2.23,9.19,6.02,12.03-2.99,.61-5.73,2.09-7.85,4.22-2.13,2.13-3.64,4.9-4.18,8.11-.14,.86-.22,1.69-.22,2.56,0,5.37,2.92,10.34,7.46,13.01-2.92,.9-5.48,2.67-7.35,5.01-1.87,2.31-3.06,5.22-3.28,8.43-.04,.32-.04,.65-.04,1.01,0,6.2,3.82,11.64,9.33,13.94-5.15,2.45-8.61,7.71-8.61,13.58,0,.54,0,1.04,.07,1.59,.32,3.24,1.66,6.12,3.64,8.43,2.02,2.27,4.65,3.93,7.64,4.68-4.18,2.77-6.77,7.53-6.77,12.61,0,1.19,.14,2.34,.43,3.53,.76,3.17,2.49,5.87,4.76,7.85,2.27,1.98,5.15,3.28,8.21,3.64-3.28,2.88-5.15,7.03-5.15,11.38,0,1.8,.32,3.64,1.01,5.44,2.31,6.02,8.03,9.66,14.12,9.66h.25c-2.41,2.77-3.71,6.3-3.71,9.94,0,2.45,.61,4.97,1.87,7.28,2.74,4.97,7.93,7.82,13.26,7.82,.76,0,1.51-.07,2.27-.18-1.62,2.49-2.49,5.4-2.49,8.32,0,3.13,.97,6.27,2.95,8.97,2.99,4.04,7.53,6.16,12.18,6.16,1.41,0,2.85-.22,4.22-.61-1.01,2.05-1.48,4.32-1.48,6.56,0,3.78,1.41,7.57,4.25,10.52,2.95,3.06,6.92,4.61,10.88,4.61,2.09,0,4.18-.43,6.12-1.3-.5,1.55-.76,3.13-.76,4.72,0,4.47,1.95,8.9,5.73,11.85,2.77,2.2,6.09,3.24,9.37,3.24,2.77,0,5.51-.76,7.93-2.23-.18,.94-.25,1.87-.25,2.81,0,5.15,2.63,10.16,7.39,13.01,2.41,1.44,5.08,2.09,7.71,2.09,3.46,0,6.85-1.19,9.58-3.39,0,.25-.04,.54-.04,.79,0,5.87,3.46,11.46,9.22,13.91,1.95,.83,3.96,1.23,5.94,1.23,4.14,0,8.18-1.73,11.02-4.79,.25,3.06,1.44,5.98,3.35,8.32,1.91,2.34,4.58,4.14,7.71,5.01,1.33,.36,2.7,.54,4,.54,4.9,0,9.51-2.41,12.32-6.38,.65,3.03,2.23,5.76,4.47,7.82,2.2,2.05,5.04,3.49,8.29,3.93,.68,.11,1.37,.14,2.02,.14,5.69,0,10.81-3.21,13.37-8.11,1.04,2.92,2.99,5.37,5.44,7.13,2.49,1.77,5.48,2.77,8.75,2.77h.9c3.24,0,6.27-1.08,8.75-2.81,2.45-1.8,4.36-4.25,5.4-7.17,2.59,4.9,7.71,8.07,13.37,8.07,.68,0,1.37-.04,2.05-.14v-.04c3.21-.43,6.09-1.87,8.29-3.93,2.2-2.09,3.78-4.79,4.43-7.82,2.81,3.93,7.42,6.3,12.29,6.3,1.33,0,2.7-.18,4.04-.54,3.13-.86,5.8-2.7,7.71-5.04,1.91-2.38,3.06-5.26,3.31-8.36,2.88,3.03,6.88,4.76,11.02,4.76,1.98,0,4-.4,5.94-1.23,5.69-2.49,9.15-8.03,9.15-13.83,0-.29-.04-.58-.04-.86,2.7,2.16,6.09,3.35,9.51,3.35,2.67,0,5.33-.68,7.78-2.16,4.72-2.85,7.31-7.85,7.31-13.01,0-.94-.07-1.87-.25-2.81,2.38,1.48,5.12,2.2,7.89,2.2,3.28,0,6.63-1.04,9.4-3.28,3.75-2.99,5.66-7.39,5.66-11.82,0-1.62-.25-3.24-.76-4.79,1.95,.86,4.04,1.26,6.09,1.26,3.96,0,7.93-1.55,10.92-4.61,2.81-2.95,4.22-6.7,4.22-10.45,0-2.31-.54-4.58-1.55-6.67,1.37,.4,2.77,.58,4.18,.58,4.68,0,9.26-2.13,12.21-6.16,1.98-2.7,2.95-5.84,2.95-8.93s-.9-5.91-2.56-8.39c.76,.11,1.51,.18,2.27,.18,5.33,0,10.52-2.88,13.26-7.89,1.26-2.31,1.84-4.79,1.84-7.21,0-3.67-1.3-7.24-3.75-10.02h.25c6.09,0,11.82-3.67,14.12-9.69v-.04c.68-1.77,.97-3.57,.97-5.37,0-4.36-1.91-8.57-5.22-11.46,3.1-.36,5.94-1.66,8.21-3.67,2.31-1.98,4-4.68,4.76-7.89,.25-1.15,.4-2.31,.4-3.46,0-5.08-2.59-9.84-6.85-12.61,2.99-.76,5.66-2.45,7.64-4.76,1.98-2.27,3.31-5.19,3.64-8.43,.04-.47,.07-.97,.07-1.44,0-5.94-3.49-11.24-8.72-13.69Zm-417.49-5.66C17.22,108.66,108.98,16.9,222.15,16.9s204.93,91.76,204.93,204.93-91.73,204.93-204.93,204.93S17.22,334.99,17.22,221.82Z"/><circle class="c" cx="222.16" cy="221.8" r="204.93"/><g><circle class="c" cx="222.16" cy="221.8" r="192.12"/><path class="g" d="M414.28,221.8c0,106.1-86.01,192.12-192.12,192.12-254.84-10.12-254.76-374.15,0-384.23,106.1,0,192.11,86.01,192.11,192.12h0Z"/></g><circle class="b" cx="222.16" cy="221.8" r="178.47" transform="translate(-39.13 395.82) rotate(-78.62)"/></g><g><path class="f" d="M201.41,240.33c-.45-.22-.89-.47-1.29-.76-2.7-1.78-4.5-4.01-5.57-6.49,2.12,2.59,4.41,5.02,6.87,7.25Z"/><path class="f" d="M270.26,258.28c-.11,.8-.22,1.61-.38,2.41-13.82,4.88-28.36,7.42-43.12,7.29-27.2-.07-53.15-9.97-72.43-26.86v9.59c0,2.76-2.25,5.02-5.04,5.02s-5.02-2.25-5.02-5.02v-19.77c-2.39-2.76-4.59-5.66-6.64-8.69v32.08c0,3.57-2.88,6.44-6.42,6.44h-.18c-3.54,0-6.42-2.88-6.42-6.44v-61.18c-1.87-7.47-2.85-15.36-2.81-23.61,1.07-77.52,86.59-116.71,152.76-88.51-29.36-9.5-64.76,1.61-82.4,25.59-11.1,14.13-15.85,31.84-17.32,48.8-.11,2.07-.2,4.17-.27,6.24,0,.6-.02,1.23-.04,1.81-.02,.89-.02,1.78-.02,2.68,0,1.14,0,2.25,.04,3.37,.02,1.45,.07,2.88,.16,4.35,.74,15.18,3.81,30.32,10.68,44.59,2.41,5.28,5.48,10.17,9.14,14.58,0,.02,.02,.04,.02,.07,1.07,2.47,2.88,4.7,5.57,6.49,.4,.29,.85,.54,1.29,.76,17.95,16.5,44.25,24.01,68.84,17.95Z"/><g><path class="e" d="M252.04,198.48c-.09,.33-.2,.69-.31,1.07-.36-.36-.71-.69-1.07-1.05l1.38-.02Z"/><g><rect class="e" x="286.76" y="358.05" width="10.06" height="13.68" rx="5.03" ry="5.03"/><path class="e" d="M316.63,283.91v45.61c0,3.54-2.88,6.42-6.42,6.42h-.18c-3.54,0-6.42-2.88-6.42-6.42v-22.94c-2.14,2.63-4.39,5.11-6.8,7.45v32.82c0,2.79-2.25,5.04-5.02,5.04s-5.04-2.25-5.04-5.04v-24.37c-2.3,1.67-4.7,3.23-7.16,4.7v13.26c0,2.79-2.25,5.04-5.04,5.04s-5.02-2.25-5.02-5.04v-8.07c-8.92,3.99-18.39,6.67-28,7.89-34.24,4.53-66.68-3.66-95.91-17.97,27.49,10.39,60.39,7.85,85.77-6.44,20.53-11.55,36.92-29.9,41.73-52.37,.67-3.17,1.11-6.4,1.32-9.72,0-.18,.02-.38,.02-.58,.74-20.58-8.45-39.26-22.74-53.64,.11-.38,.22-.74,.31-1.07l-1.38,.02c-14.38-14-33.64-23.72-53.08-26.8-6.33-1.14-12.82-1.69-19.31-1.63-.02-1.78-.04-3.59-.02-5.4,53.77-11.24,117.54,1.25,138.92,57.63,7.42,19.64,7.04,42.07-.54,61.6Z"/></g></g><rect class="f" x="124.61" y="267.13" width="13.03" height="16.91" rx="6.52" ry="6.52"/><path class="e" d="M261.99,215.72c-1.61,4.82-7.74,21.78-14.16,26.84-1.89,1.43-4.24,1.94-5.4-.4-1.47-4.53-.74-8.67,.42-12.82,1.54-6.33,6.53-21.76,8.87-29.79,.11-.38,.22-.74,.31-1.07l-1.38,.02-10.43,.11c-1.32,4.41-3.63,11.01-5.97,17.23-5.11,10.63-11.97,20.09-19.11,21-20,2.59,1.74-47.95,14.87-48.22,6.71,.27,.89,12.06-6.13,19.71-2.47,3.63,.6,7.13,5.26,7.65,4.82-4.28,14.45-21.65,4.66-27.09-10.5-5.95-21.13,.65-29.03,10.5-6.69,8.45-14.71,23.3-10.26,33.62,0,.02,.02,.04,.02,.07,1.07,2.47,2.88,4.7,5.57,6.49,.4,.29,.85,.54,1.29,.76,3.48,1.85,7.98,2.23,13.29,.29,7.45-2.85,12.11-8.18,16.63-16.07-.58,1.56-1.03,3.1-1.32,4.39-.29,2.21-.71,5.06-.58,7.91,.45,9.34,9.79,15.29,18.82,8.29,7.74-5.95,12.55-21.51,15.63-29.43h-1.89Z"/></g></svg>